<svg
        xmlns="http://www.w3.org/2000/svg"
        viewBox="0 0 98 90"
        width="98"
        height="90"
>
    <path
            d="M33.829 54.204c-.159 0-.317.009-.476.012-.161-.003-.314-.012-.477-.012-16.769 0-30.556 5.347-32.194 20.374-.042.388-.08 3.678-.114 5.45 9.029 6.932 19.997 10.64 32.784 10.638 12.649 0 23.796-3.84 32.785-10.638-.03-1.772-.074-5.062-.114-5.45-1.638-15.027-15.424-20.374-32.194-20.374zm-.476-8.892c9.295 0 16.827-9.27 16.827-20.707 0-11.438-7.533-18.121-16.827-18.121-9.291 0-16.825 6.683-16.825 18.121.002 11.437 7.534 20.707 16.825 20.707zm48.463-29.03V.665h-5.904V16.28H60.3v5.902h15.613v15.614h5.904V22.183H97.43v-5.902H81.816v.001z"
            fill="#4f46e5"
    />
</svg>
